<svg width="20" height="21" viewBox="0 0 20 21" fill="none" xmlns="http://www.w3.org/2000/svg">
<path d="M10 18.9999C8.14348 18.9999 6.36301 18.2624 5.05025 16.9496C3.7375 15.6369 3 13.8564 3 11.9999C3 10.1433 3.7375 8.36287 5.05025 7.05012C6.36301 5.73736 8.14348 4.99986 10 4.99986C11.8565 4.99986 13.637 5.73736 14.9497 7.05012C16.2625 8.36287 17 10.1433 17 11.9999C17 13.8564 16.2625 15.6369 14.9497 16.9496C13.637 18.2624 11.8565 18.9999 10 18.9999ZM10 2.99986C7.61305 2.99986 5.32387 3.94807 3.63604 5.6359C1.94821 7.32373 1 9.61292 1 11.9999C1 14.3868 1.94821 16.676 3.63604 18.3638C5.32387 20.0517 7.61305 20.9999 10 20.9999C12.3869 20.9999 14.6761 20.0517 16.364 18.3638C18.0518 16.676 19 14.3868 19 11.9999C19 9.61292 18.0518 7.32373 16.364 5.6359C14.6761 3.94807 12.3869 2.99986 10 2.99986ZM10.5 6.99986H9V12.9999L13.75 15.8499L14.5 14.6199L10.5 12.2499V6.99986ZM5.88 2.38986L4.6 0.859863L0 4.70986L1.29 6.23986L5.88 2.38986ZM20 4.71986L15.4 0.859863L14.11 2.38986L18.71 6.24986L20 4.71986Z" fill="#358701"/>
</svg>
