<svg width="20" height="18" viewBox="0 0 20 18" fill="none" xmlns="http://www.w3.org/2000/svg">
<path d="M2 16C1.45 16 0.979333 15.8043 0.588 15.413C0.196667 15.0217 0.000666667 14.5507 0 14V2C0 1.45 0.196 0.979333 0.588 0.588C0.98 0.196667 1.45067 0.000666667 2 0H18C18.55 0 19.021 0.196 19.413 0.588C19.805 0.98 20.0007 1.45067 20 2V14C20 14.55 19.8043 15.021 19.413 15.413C19.0217 15.805 18.5507 16.0007 18 16H14V17C14 17.2833 13.904 17.521 13.712 17.713C13.52 17.905 13.2827 18.0007 13 18H7C6.71667 18 6.47933 17.904 6.288 17.712C6.09667 17.52 6.00067 17.2827 6 17V16H2ZM2 14H18V2H2V14ZM4 13C4.28333 13 4.521 12.904 4.713 12.712C4.905 12.52 5.00067 12.2827 5 12C4.99933 11.7173 4.90333 11.48 4.712 11.288C4.52067 11.096 4.28333 11 4 11C3.71667 11 3.47933 11.096 3.288 11.288C3.09667 11.48 3.00067 11.7173 3 12C2.99933 12.2827 3.09533 12.5203 3.288 12.713C3.48067 12.9057 3.718 13.0013 4 13ZM10.275 13C10.475 13 10.646 12.929 10.788 12.787C10.93 12.645 11.0007 12.4743 11 12.275C11 10.2583 10.2917 8.54167 8.875 7.125C7.45833 5.70833 5.74167 5 3.725 5C3.525 5 3.354 5.071 3.212 5.213C3.07 5.355 2.99933 5.52567 3 5.725C3.00067 5.92433 3.07167 6.09533 3.213 6.238C3.35433 6.38067 3.525 6.45133 3.725 6.45C5.34167 6.45 6.71667 7.01667 7.85 8.15C8.98333 9.28333 9.55 10.6583 9.55 12.275C9.55 12.475 9.621 12.646 9.763 12.788C9.905 12.93 10.0757 13.0007 10.275 13ZM7.275 13C7.475 13 7.646 12.929 7.788 12.787C7.93 12.645 8.00067 12.4743 8 12.275C8 11.0917 7.58333 10.0833 6.75 9.25C5.91667 8.41667 4.90833 8 3.725 8C3.525 8 3.354 8.071 3.212 8.213C3.07 8.355 2.99933 8.52567 3 8.725C3.00067 8.92433 3.07167 9.09533 3.213 9.238C3.35433 9.38067 3.525 9.45133 3.725 9.45C4.50833 9.45 5.175 9.725 5.725 10.275C6.275 10.825 6.55 11.4917 6.55 12.275C6.55 12.475 6.621 12.646 6.763 12.788C6.905 12.93 7.07567 13.0007 7.275 13Z" fill="#358701"/>
</svg>
