<svg width="16" height="20" viewBox="0 0 16 20" fill="none" xmlns="http://www.w3.org/2000/svg">
<path d="M2 20C1.45 20 0.979333 19.8043 0.588 19.413C0.196666 19.0217 0.000666667 18.5507 0 18V2C0 1.45 0.196 0.979333 0.588 0.588C0.98 0.196667 1.45067 0.000666667 2 0H15C15.2833 0 15.521 0.0960001 15.713 0.288C15.905 0.48 16.0007 0.717333 16 1C15.9993 1.28267 15.9033 1.52033 15.712 1.713C15.5207 1.90567 15.2833 2.00133 15 2H14V4C14 4.28333 13.904 4.521 13.712 4.713C13.52 4.905 13.2827 5.00067 13 5H5C4.71667 5 4.47933 4.904 4.288 4.712C4.09667 4.52 4.00067 4.28267 4 4V2H2V18H6.05C5.41667 17.55 4.91667 16.979 4.55 16.287C4.18333 15.595 4 14.8327 4 14V11C4 10.45 4.196 9.97933 4.588 9.588C4.98 9.19667 5.45067 9.00067 6 9H12C12.55 9 13.021 9.196 13.413 9.588C13.805 9.98 14.0007 10.4507 14 11V14C14 14.8333 13.8167 15.596 13.45 16.288C13.0833 16.98 12.5833 17.5507 11.95 18H15C15.2833 18 15.521 18.096 15.713 18.288C15.905 18.48 16.0007 18.7173 16 19C15.9993 19.2827 15.9033 19.5203 15.712 19.713C15.5207 19.9057 15.2833 20.0013 15 20H2ZM9 17C9.83333 17 10.5417 16.7083 11.125 16.125C11.7083 15.5417 12 14.8333 12 14V11H6V14C6 14.8333 6.29167 15.5417 6.875 16.125C7.45833 16.7083 8.16667 17 9 17ZM9 8C9.28333 8 9.521 7.904 9.713 7.712C9.905 7.52 10.0007 7.28267 10 7C9.99933 6.71733 9.90333 6.48 9.712 6.288C9.52067 6.096 9.28333 6 9 6C8.71667 6 8.47933 6.096 8.288 6.288C8.09667 6.48 8.00067 6.71733 8 7C7.99933 7.28267 8.09533 7.52033 8.288 7.713C8.48067 7.90567 8.718 8.00133 9 8Z" fill="#358701"/>
</svg>
