<svg width="20" height="22" viewBox="0 0 20 22" fill="none" xmlns="http://www.w3.org/2000/svg">
<path d="M7.99991 10.73C10.3614 10.274 12.6979 9.69654 14.9999 9V2C14.9999 2 8.49991 0 5.49991 0C4.16441 0.00375917 2.8759 0.493318 1.87483 1.37732C0.873771 2.26132 0.228554 3.47936 0.0595895 4.80414C-0.109375 6.12891 0.209459 7.46991 0.956591 8.57688C1.70372 9.68385 2.82811 10.4811 4.11991 10.82L4.99991 17H5.99991C6.0399 17.4766 6.19328 17.9368 6.44725 18.3421C6.70123 18.7474 7.04843 19.0861 7.45991 19.33C7.92385 19.6058 8.30912 19.9962 8.57879 20.4638C8.84846 20.9313 8.99347 21.4603 8.99991 22H9.99991C9.99537 21.3111 9.81816 20.6343 9.48448 20.0316C9.15081 19.4289 8.67133 18.9195 8.08991 18.55C7.38991 18 6.99991 17.63 6.99991 17H7.99991M1.99991 5.5C1.99991 4.57174 2.36866 3.6815 3.02504 3.02513C3.68142 2.36875 4.57166 2 5.49991 2C8.04502 2.23957 10.5584 2.74225 12.9999 3.5V7.5C10.5584 8.25775 8.04502 8.76043 5.49991 9C4.57166 9 3.68142 8.63125 3.02504 7.97487C2.36866 7.3185 1.99991 6.42826 1.99991 5.5ZM19.9999 7C19.2238 7.02043 18.4567 6.83038 17.7799 6.45C17.2391 6.13961 16.6233 5.98393 15.9999 6V5C16.776 4.97957 17.5431 5.16962 18.2199 5.55C18.7608 5.86039 19.3765 6.01607 19.9999 6M19.9999 4C19.3765 4.01607 18.7608 3.86039 18.2199 3.55C17.5431 3.16962 16.776 2.97956 15.9999 3V4C16.6233 3.98393 17.2391 4.13961 17.7799 4.45C18.4567 4.83038 19.2238 5.02043 19.9999 5M19.9999 8C19.3765 8.01607 18.7608 7.86039 18.2199 7.55C17.5431 7.16962 16.776 6.97957 15.9999 7V8C16.6233 7.98393 17.2391 8.13961 17.7799 8.45C18.4567 8.83038 19.2238 9.02044 19.9999 9M6.99991 5.5C6.99991 5.79667 6.91194 6.08668 6.74712 6.33335C6.5823 6.58003 6.34803 6.77229 6.07394 6.88582C5.79985 6.99935 5.49825 7.02906 5.20728 6.97118C4.91631 6.9133 4.64903 6.77044 4.43925 6.56066C4.22947 6.35088 4.08661 6.08361 4.02873 5.79264C3.97086 5.50166 4.00056 5.20006 4.11409 4.92597C4.22762 4.65189 4.41988 4.41762 4.66656 4.2528C4.91323 4.08797 5.20324 4 5.49991 4C5.89774 4 6.27927 4.15804 6.56057 4.43934C6.84188 4.72064 6.99991 5.10218 6.99991 5.5Z" fill="#358701"/>
</svg>
