<svg width="24" height="24" viewBox="0 0 24 24" fill="none" xmlns="http://www.w3.org/2000/svg">
<path d="M11 19V21M11 12V16M16 12V16H14M21 12H8M5 12H3M3 5L12 3L21 5" stroke="#358701" stroke-width="1.5" stroke-linecap="round" stroke-linejoin="round"/>
<path d="M21 8.6V20.4C21 20.5591 20.9368 20.7117 20.8243 20.8243C20.7117 20.9368 20.5591 21 20.4 21H3.6C3.44087 21 3.28826 20.9368 3.17574 20.8243C3.06321 20.7117 3 20.5591 3 20.4V8.6C3 8.44087 3.06321 8.28826 3.17574 8.17574C3.28826 8.06321 3.44087 8 3.6 8H20.4C20.5591 8 20.7117 8.06321 20.8243 8.17574C20.9368 8.28826 21 8.44087 21 8.6Z" stroke="#358701" stroke-width="1.5" stroke-linecap="round" stroke-linejoin="round"/>
</svg>
