<svg width="20" height="12" viewBox="0 0 20 12" fill="none" xmlns="http://www.w3.org/2000/svg">
<path d="M2 10H13V7H4C3.45 7 2.97933 7.196 2.588 7.588C2.19667 7.98 2.00067 8.45067 2 9V10ZM19 0C19.2833 0 19.521 0.0960001 19.713 0.288C19.905 0.48 20.0007 0.717333 20 1C19.9993 1.28267 19.9033 1.52033 19.712 1.713C19.5207 1.90567 19.2833 2.00133 19 2C18.7167 1.99867 18.4793 2.09467 18.288 2.288C18.0967 2.48133 18.0007 2.71867 18 3V7C18 7.83333 17.7083 8.54167 17.125 9.125C16.5417 9.70833 15.8333 10 15 10V11C15 11.2833 14.904 11.521 14.712 11.713C14.52 11.905 14.2827 12.0007 14 12H1C0.716667 12 0.479333 11.904 0.288 11.712C0.0966668 11.52 0.000666667 11.2827 0 11V9C0 7.9 0.391667 6.95833 1.175 6.175C1.95833 5.39167 2.9 5 4 5H13V4C13 3.71667 12.904 3.47933 12.712 3.288C12.52 3.09667 12.2827 3.00067 12 3H8C7.86667 3 7.73767 3.02933 7.613 3.088C7.48833 3.14667 7.384 3.21733 7.3 3.3C7.216 3.38267 7.112 3.44933 6.988 3.5C6.864 3.55067 6.73467 3.57567 6.6 3.575C6.31667 3.575 6.07933 3.479 5.888 3.287C5.69667 3.095 5.60067 2.858 5.6 2.576C5.6 2.44267 5.625 2.31367 5.675 2.189C5.725 2.06433 5.79167 1.96 5.875 1.876C6.15833 1.59267 6.47933 1.376 6.838 1.226C7.19667 1.076 7.584 1.00067 8 1H12C12.8333 1 13.5417 1.29167 14.125 1.875C14.7083 2.45833 15 3.16667 15 4V8C15.2833 8 15.521 7.90433 15.713 7.713C15.905 7.52167 16.0007 7.284 16 7V3C16 2.16667 16.2917 1.45833 16.875 0.875C17.4583 0.291667 18.1667 0 19 0Z" fill="#358701"/>
</svg>
