<svg width="16" height="21" viewBox="0 0 16 21" fill="none" xmlns="http://www.w3.org/2000/svg">
<path d="M2 21C1.45 21 0.979333 20.8043 0.588 20.413C0.196666 20.0217 0.000666667 19.5507 0 19V9C0 8.45 0.196 7.97933 0.588 7.588C0.98 7.19667 1.45067 7.00067 2 7H11V5C11 4.16667 10.7083 3.45833 10.125 2.875C9.54167 2.29167 8.83333 2 8 2C7.3 2 6.68733 2.21267 6.162 2.638C5.63667 3.06333 5.28267 3.59233 5.1 4.225C5.03333 4.45833 4.89567 4.646 4.687 4.788C4.47833 4.93 4.24933 5.00067 4 5C3.71667 5 3.47933 4.90833 3.288 4.725C3.09667 4.54167 3.02567 4.325 3.075 4.075C3.30833 2.925 3.88333 1.95833 4.8 1.175C5.71667 0.391667 6.78333 0 8 0C9.38333 0 10.5627 0.487333 11.538 1.462C12.5133 2.43667 13.0007 3.616 13 5V7H14C14.55 7 15.021 7.196 15.413 7.588C15.805 7.98 16.0007 8.45067 16 9V19C16 19.55 15.8043 20.021 15.413 20.413C15.0217 20.805 14.5507 21.0007 14 21H2ZM2 19H14V9H2V19ZM8 16C8.55 16 9.021 15.8043 9.413 15.413C9.805 15.0217 10.0007 14.5507 10 14C9.99933 13.4493 9.80367 12.9787 9.413 12.588C9.02233 12.1973 8.55133 12.0013 8 12C7.44867 11.9987 6.978 12.1947 6.588 12.588C6.198 12.9813 6.002 13.452 6 14C5.998 14.548 6.194 15.019 6.588 15.413C6.982 15.807 7.45267 16.0027 8 16Z" fill="#358701"/>
</svg>
