<svg width="20" height="16" viewBox="0 0 20 16" fill="none" xmlns="http://www.w3.org/2000/svg">
<path d="M2 16C1.45 16 0.979333 15.8043 0.588 15.413C0.196667 15.0217 0.000666667 14.5507 0 14V2C0 1.45 0.196 0.979333 0.588 0.588C0.98 0.196666 1.45067 0.000666667 2 0H18C18.55 0 19.021 0.196 19.413 0.588C19.805 0.98 20.0007 1.45067 20 2V14C20 14.55 19.8043 15.021 19.413 15.413C19.0217 15.805 18.5507 16.0007 18 16H2ZM2 14H18V2H2V14ZM3 13H13V3H3V13ZM16 13C16.2833 13 16.521 12.904 16.713 12.712C16.905 12.52 17.0007 12.2827 17 12C16.9993 11.7173 16.9033 11.48 16.712 11.288C16.5207 11.096 16.2833 11 16 11C15.7167 11 15.4793 11.096 15.288 11.288C15.0967 11.48 15.0007 11.7173 15 12C14.9993 12.2827 15.0953 12.5203 15.288 12.713C15.4807 12.9057 15.718 13.0013 16 13ZM5 11V5H11V11H5ZM16 9C16.2833 9 16.521 8.904 16.713 8.712C16.905 8.52 17.0007 8.28267 17 8C16.9993 7.71733 16.9033 7.48 16.712 7.288C16.5207 7.096 16.2833 7 16 7C15.7167 7 15.4793 7.096 15.288 7.288C15.0967 7.48 15.0007 7.71733 15 8C14.9993 8.28267 15.0953 8.52033 15.288 8.713C15.4807 8.90567 15.718 9.00133 16 9ZM16 5C16.2833 5 16.521 4.904 16.713 4.712C16.905 4.52 17.0007 4.28267 17 4C16.9993 3.71733 16.9033 3.48 16.712 3.288C16.5207 3.096 16.2833 3 16 3C15.7167 3 15.4793 3.096 15.288 3.288C15.0967 3.48 15.0007 3.71733 15 4C14.9993 4.28267 15.0953 4.52033 15.288 4.713C15.4807 4.90567 15.718 5.00133 16 5Z" fill="#358701"/>
</svg>
