<svg width="14" height="20" viewBox="0 0 14 20" fill="none" xmlns="http://www.w3.org/2000/svg">
<path d="M4 19V20H2V19C1.46957 19 0.960859 18.7893 0.585786 18.4142C0.210714 18.0391 0 17.5304 0 17V2C0 1.46957 0.210714 0.960859 0.585786 0.585786C0.960859 0.210714 1.46957 0 2 0H12C12.5304 0 13.0391 0.210714 13.4142 0.585786C13.7893 0.960859 14 1.46957 14 2V17C14 17.5304 13.7893 18.0391 13.4142 18.4142C13.0391 18.7893 12.5304 19 12 19V20H10V19H4ZM2 2V7H12V2H2ZM2 17H12V9H2V17ZM3 10H5V13H3V10ZM3 4H5V6H3V4Z" fill="#358701"/>
</svg>
