<svg width="24" height="24" viewBox="0 0 24 24" fill="none" xmlns="http://www.w3.org/2000/svg">
<path d="M12 1.5L3 4.5V13.5C3 18.4711 7.02891 22.5 12 22.5C16.9711 22.5 21 18.4711 21 13.5V4.5L12 1.5ZM19.3125 13.5C19.3125 17.5383 16.0383 20.8125 12 20.8125C7.96172 20.8125 4.6875 17.5383 4.6875 13.5V5.76562L12 3.1875L19.3125 5.76562V13.5Z" fill="#358701"/>
<path d="M8.86882 11.1352C8.79061 11.0566 8.69766 10.9943 8.5953 10.9517C8.49294 10.9092 8.38318 10.8873 8.27233 10.8873C8.16148 10.8873 8.05173 10.9092 7.94936 10.9517C7.847 10.9943 7.75405 11.0566 7.67585 11.1352C7.59729 11.2134 7.53495 11.3063 7.49241 11.4087C7.44988 11.511 7.42798 11.6208 7.42798 11.7316C7.42798 11.8425 7.44988 11.9522 7.49241 12.0546C7.53495 12.157 7.59729 12.2499 7.67585 12.3281L10.7087 15.3609L10.7579 15.4102C10.8319 15.4843 10.9197 15.5431 11.0164 15.5832C11.1132 15.6233 11.2168 15.6439 11.3215 15.6439C11.4263 15.6439 11.5299 15.6233 11.6267 15.5832C11.7234 15.5431 11.8112 15.4843 11.8852 15.4102L17.1235 10.1719C17.1976 10.0979 17.2564 10.01 17.2965 9.91332C17.3366 9.8166 17.3573 9.71292 17.3573 9.6082C17.3573 9.50349 17.3366 9.39981 17.2965 9.30309C17.2564 9.20637 17.1976 9.1185 17.1235 9.04453L17.0579 8.97891C16.9839 8.9048 16.896 8.846 16.7993 8.80588C16.7026 8.76577 16.5989 8.74512 16.4942 8.74512C16.3895 8.74512 16.2858 8.76577 16.1891 8.80588C16.0924 8.846 16.0045 8.9048 15.9305 8.97891L11.3204 13.5867L8.86882 11.1352Z" fill="#358701"/>
</svg>
