<svg width="18" height="18" viewBox="0 0 18 18" fill="none" xmlns="http://www.w3.org/2000/svg">
<path d="M0 16V2C0 1.45 0.196 0.979333 0.588 0.588C0.98 0.196667 1.45067 0.000666667 2 0H16C16.55 0 17.021 0.196 17.413 0.588C17.805 0.98 18.0007 1.45067 18 2V16C18 16.55 17.8043 17.021 17.413 17.413C17.0217 17.805 16.5507 18.0007 16 18H2C1.45 18 0.979333 17.8043 0.588 17.413C0.196667 17.0217 0.000666667 16.5507 0 16ZM2 6H16V2H2V6ZM7.325 11H10.675V8H7.325V11ZM7.325 16H10.675V13H7.325V16ZM2 11H5.325V8H2V11ZM12.675 11H16V8H12.675V11ZM2 16H5.325V13H2V16ZM12.675 16H16V13H12.675V16Z" fill="#358701"/>
</svg>
