<svg width="19" height="18" viewBox="0 0 19 18" fill="none" xmlns="http://www.w3.org/2000/svg">
<path d="M6 0C2.69 0 0.14 2.69 0 6V18H9V10.46C10.1 11.45 11.5 12 13 12C16.31 12 19 9.31 19 6C19 2.69 16.31 0 13 0H6ZM6 2H8.54C7.55 3.1 7 4.5 7 6V9H6V10H7V16H2V10H3V9H2V6C2 3.79 3.79 2 6 2ZM13 2C15.21 2 17 3.79 17 6C17 8.21 15.21 10 13 10C10.79 10 9 8.21 9 6C9 3.79 10.79 2 13 2ZM13 4.25C12.03 4.25 11.25 5.03 11.25 6C11.25 6.97 12.03 7.75 13 7.75C13.97 7.75 14.75 6.97 14.75 6C14.75 5.03 13.97 4.25 13 4.25ZM4 9V10H5V9H4Z" fill="#358701"/>
</svg>
