<svg width="20" height="20" viewBox="0 0 20 20" fill="none" xmlns="http://www.w3.org/2000/svg">
<path d="M18.4072 7.17247C18.9395 7.17247 19.221 6.88104 19.221 6.34875V3.88789C19.221 1.81875 18.1762 0.78418 16.0667 0.78418H13.6157C13.0835 0.78418 12.7925 1.07561 12.7925 1.58775C12.7925 2.11018 13.0839 2.40161 13.6157 2.40161H16.0466C17.031 2.40161 17.6036 2.93389 17.6036 3.97875V6.34875C17.6036 6.88146 17.895 7.17247 18.4072 7.17247ZM1.59261 7.17247C2.11503 7.17247 2.39618 6.88104 2.39618 6.34875V3.97875C2.39618 2.93389 2.95846 2.40161 3.96303 2.40161H6.39389C6.91632 2.40161 7.20732 2.11018 7.20732 1.58775C7.20732 1.07561 6.91589 0.78418 6.39389 0.78418H3.93303C1.84375 0.78418 0.778749 1.81875 0.778749 3.88789V6.34918C0.778749 6.88147 1.07018 7.17247 1.59261 7.17247ZM5.64046 14.0232H14.1382C14.8012 14.0232 15.2833 13.5612 15.2833 12.9183V7.81532C15.2833 7.17247 14.8012 6.71046 14.1382 6.71046H12.6116C12.3605 6.71046 12.2297 6.64018 12.0189 6.38904L11.808 6.12761C11.5766 5.83661 11.2955 5.70632 10.9543 5.70632H8.84489C8.48318 5.70632 8.20203 5.83661 7.97061 6.12804L7.75975 6.38947C7.54889 6.64018 7.42846 6.71089 7.19746 6.71089H5.64046C4.97746 6.71089 4.51546 7.17247 4.51546 7.81532V12.9188C4.51546 13.5616 4.97746 14.0232 5.64046 14.0232ZM9.89961 12.5468C8.56332 12.5468 7.47861 11.4522 7.47861 10.1163C7.47861 8.75989 8.56332 7.67518 9.89918 7.67518C11.2556 7.67518 12.33 8.75989 12.33 10.1163C12.3306 10.4356 12.2681 10.7519 12.1462 11.0471C12.0242 11.3422 11.8452 11.6104 11.6194 11.8362C11.3936 12.062 11.1255 12.241 10.8304 12.3629C10.5352 12.4848 10.2189 12.5473 9.89961 12.5468ZM9.89961 11.8336C10.1259 11.8347 10.3502 11.7912 10.5596 11.7054C10.769 11.6196 10.9594 11.4933 11.1199 11.3337C11.2804 11.1742 11.4078 10.9845 11.4947 10.7756C11.5817 10.5667 11.6266 10.3426 11.6267 10.1163C11.6287 9.88847 11.5854 9.6625 11.4994 9.45148C11.4134 9.24046 11.2865 9.04859 11.1258 8.88697C10.9652 8.72535 10.7741 8.59719 10.5636 8.50991C10.3532 8.42262 10.1275 8.37795 9.89961 8.37847C8.94518 8.37847 8.18189 9.14175 8.18189 10.1163C8.18098 10.3421 8.2248 10.5659 8.31081 10.7747C8.39681 10.9835 8.52331 11.1732 8.683 11.3328C8.84269 11.4925 9.03242 11.6189 9.24123 11.7049C9.45004 11.7908 9.6738 11.8346 9.89961 11.8336ZM3.93261 19.2162H6.39346C6.91589 19.2162 7.20689 18.9248 7.20689 18.4126C7.20689 17.8902 6.91546 17.5992 6.39346 17.5992H3.96261C2.95803 17.5992 2.39575 17.0665 2.39575 16.022V13.6516C2.39575 13.1189 2.10432 12.8279 1.59218 12.8279C1.05989 12.8279 0.77832 13.1193 0.77832 13.6516V16.1022C0.77832 18.1816 1.84332 19.2162 3.93261 19.2162ZM13.6153 19.2162H16.0667C18.1757 19.2162 19.2206 18.1713 19.2206 16.1022V13.6516C19.2206 13.1189 18.9292 12.8279 18.4067 12.8279C17.8843 12.8279 17.6032 13.1193 17.6032 13.6516V16.0216C17.6032 17.0665 17.0306 17.5988 16.0462 17.5988H13.6153C13.083 17.5988 12.792 17.8902 12.792 18.4126C12.792 18.9248 13.0835 19.2162 13.6153 19.2162Z" fill="#358701"/>
</svg>
