<svg width="20" height="14" viewBox="0 0 20 14" fill="none" xmlns="http://www.w3.org/2000/svg">
<path d="M10.0001 12C10.2653 12 10.5196 12.1054 10.7072 12.2929C10.8947 12.4804 11.0001 12.7348 11.0001 13C11.0001 13.2652 10.8947 13.5196 10.7072 13.7071C10.5196 13.8947 10.2653 14 10.0001 14C9.73484 14 9.48048 13.8947 9.29295 13.7071C9.10541 13.5196 9.00006 13.2652 9.00006 13C9.00006 12.7348 9.10541 12.4804 9.29295 12.2929C9.48048 12.1054 9.73484 12 10.0001 12ZM10.0001 8.00001C11.3801 8.00001 12.6321 8.56001 13.5361 9.46401C13.7237 9.65165 13.8291 9.90615 13.8291 10.1715C13.8291 10.4369 13.7237 10.6914 13.5361 10.879C13.3484 11.0667 13.0939 11.1721 12.8286 11.1721C12.5632 11.1721 12.3087 11.0667 12.1211 10.879C11.5586 10.3164 10.7956 10.0002 10.0001 10C9.17105 10 8.42306 10.335 7.87906 10.879C7.69141 11.0667 7.43692 11.1721 7.17156 11.1721C6.90619 11.1721 6.6517 11.0667 6.46406 10.879C6.27641 10.6914 6.171 10.4369 6.171 10.1715C6.171 9.90615 6.27641 9.65165 6.46406 9.46401C6.92844 8.99975 7.47973 8.6315 8.08644 8.38031C8.69315 8.12911 9.3434 7.99989 10.0001 8.00001ZM10.0001 4.00001C11.1821 3.99891 12.3528 4.23119 13.4449 4.68354C14.5369 5.13589 15.529 5.7994 16.3641 6.63601C16.5462 6.82461 16.647 7.07721 16.6447 7.33941C16.6425 7.60161 16.5373 7.85242 16.3519 8.03783C16.1665 8.22324 15.9157 8.32841 15.6535 8.33068C15.3913 8.33296 15.1387 8.23217 14.9501 8.05001C14.3007 7.39913 13.5291 6.88296 12.6796 6.53116C11.8301 6.17936 10.9195 5.99885 10.0001 6.00001C9.08062 5.99885 8.17001 6.17936 7.32053 6.53116C6.47106 6.88296 5.69946 7.39913 5.05006 8.05001C4.86145 8.23217 4.60885 8.33296 4.34665 8.33068C4.08446 8.32841 3.83365 8.22324 3.64824 8.03783C3.46283 7.85242 3.35766 7.60161 3.35538 7.33941C3.3531 7.07721 3.4539 6.82461 3.63606 6.63601C4.47113 5.7994 5.46317 5.13589 6.55526 4.68354C7.64734 4.23119 8.81799 3.99891 10.0001 4.00001ZM10.0001 9.63035e-06C13.5901 9.63035e-06 16.8401 1.45601 19.1921 3.80801C19.3742 3.99661 19.475 4.24921 19.4727 4.51141C19.4704 4.77361 19.3653 5.02442 19.1799 5.20983C18.9945 5.39524 18.7437 5.50041 18.4815 5.50268C18.2193 5.50496 17.9667 5.40417 17.7781 5.22201C16.758 4.19878 15.5456 3.38735 14.2108 2.83439C12.8759 2.28144 11.4449 1.99787 10.0001 2.00001C8.55521 1.99787 7.1242 2.28144 5.78935 2.83439C4.45449 3.38735 3.24215 4.19878 2.22206 5.22201C2.03345 5.40417 1.78085 5.50496 1.51865 5.50268C1.25646 5.50041 1.00565 5.39524 0.820237 5.20983C0.634829 5.02442 0.52966 4.77361 0.527382 4.51141C0.525103 4.24921 0.625898 3.99661 0.808056 3.80801C2.01382 2.59905 3.44661 1.64028 5.02407 0.986774C6.60153 0.333273 8.29259 -0.00207182 10.0001 9.63035e-06Z" fill="#358701"/>
</svg>
