<?xml version="1.0" standalone="no"?>
<!DOCTYPE svg PUBLIC "-//W3C//DTD SVG 1.1//EN" "http://www.w3.org/Graphics/SVG/1.1/DTD/svg11.dtd">
<svg xmlns="http://www.w3.org/2000/svg">
<metadata>Generated by Fontastic.me</metadata>
<defs>
<font id="mh" horiz-adv-x="512">
<font-face font-family="mh" units-per-em="512" ascent="480" descent="-32"/>
<missing-glyph horiz-adv-x="512" />

<glyph glyph-name="arrow-left" unicode="&#97;" d="M222 481c-2-1-4-1-7-2-2-1-44-43-106-104-114-115-107-106-107-119 0-12-7-4 107-118 60-60 104-103 106-104 23-12 48 13 36 35-1 2-35 37-80 82l-78 78 198 0 198 1 5 2c10 4 16 14 16 24 0 11-6 20-16 24l-5 3-198 0-198 0 78 79c45 45 79 79 80 81 8 15-1 34-18 38-3 1-7 1-11 0"/>
<glyph glyph-name="arrow-right" unicode="&#98;" d="M278 481c-9-2-17-11-19-21-2-6-1-12 2-17 1-2 35-36 80-81l78-79-198 0-198 0-5-3c-10-4-16-13-16-24 0-10 6-20 16-24l5-2 198-1 198 0-78-78c-45-45-79-80-80-82-12-22 13-47 36-35 2 1 47 45 106 104 115 114 107 106 107 118 0 13 7 4-107 119-85 83-104 102-107 104-6 2-12 3-18 2"/>
<glyph glyph-name="location" unicode="&#99;" d="M236 480c-67-7-126-52-152-117-11-27-15-62-10-87 10-51 55-120 133-203 14-16 48-49 49-49 1 0 35 33 49 49 73 78 117 143 130 193 4 11 5 22 5 34-1 86-63 161-149 178-18 3-36 4-55 2m32-40c61-6 112-49 127-108 5-20 6-41 2-56-11-37-44-88-94-146-12-14-34-37-42-45l-5-5-12 12c-67 69-116 139-129 184-2 10-3 27-2 38 10 72 69 125 141 127 3 0 9-1 14-1m-22-104c-11-3-22-12-27-21-5-13-5-29 3-40 11-17 34-24 53-14 5 2 12 9 15 14 8 13 8 31 0 44-3 5-10 11-15 14-9 4-20 6-29 3"/>
<glyph glyph-name="phone" unicode="&#100;" d="M80 480c-18-4-36-20-42-37-4-12-4-18-1-37 9-51 24-97 45-140 39-79 97-135 186-177 43-21 91-38 140-49 22-5 40 0 55 14 11 11 16 22 18 37 0 5 0 23 0 47 0 35 0 38-2 41-2 3-6 8-8 9-1 1-21 8-44 17-33 13-42 16-45 16-3 0-22-4-43-8l-39-7-7 3c-41 22-68 49-84 83l-4 7 8 40c4 21 7 41 7 43 0 3-3 12-15 45-6 14-11 29-17 43-3 5-7 8-11 10-5 1-89 1-97 0m311-1c-6-3-70-68-72-72-1-5-1-10 0-15 2-5 66-69 72-72 10-5 23 0 27 11 2 3 1 11 0 15-1 2-7 9-16 18l-15 15 40 0 40 1 4 2c6 4 10 10 10 17 0 7-4 14-10 18l-4 2-40 0-40 0 15 15c9 10 15 17 16 19 1 3 2 12 0 15-4 11-17 16-27 11m-223-69l11-30-7-40c-4-23-8-42-8-44 0-4 3-11 10-24 19-38 49-69 93-94 14-8 23-13 27-14 3 0 14 2 44 8 13 2 27 5 41 7 1 0 15-5 31-11l30-11 0-32c0-21 0-32-1-34-1-4-6-10-9-11-4-2-9-2-28 3-92 23-168 62-220 112-39 38-70 91-90 154-7 23-15 60-16 73 0 5 0 7 1 10 2 1 3 3 5 5 5 4 6 4 41 3l33 0 12-30"/>
<glyph glyph-name="menu" unicode="&#101;" d="M448 149c12 0 21-9 21-21 0-12-9-21-21-21l-384 0c-12 0-21 9-21 21 0 12 9 21 21 21z m0 128c12 0 21-9 21-21 0-12-9-21-21-21l-384 0c-12 0-21 9-21 21 0 12 9 21 21 21z m0 128c12 0 21-9 21-21 0-12-9-21-21-21l-384 0c-12 0-21 9-21 21 0 12 9 21 21 21z"/>
<glyph glyph-name="x" unicode="&#102;" d="M113 399c8 8 22 8 30 0l113-113 113 113c8 8 20 8 28 2l2-2c8-8 8-22 0-30l-113-113 113-113c8-8 8-20 2-28l-2-2c-8-8-22-8-30 0l-113 113-113-113c-8-8-20-8-28-2l-2 2c-8 8-8 22 0 30l113 113-113 113c-8 8-8 20-2 28z"/>
<glyph glyph-name="bed" unicode="&#103;" d="M405 363l-170 0 0-150-171 0 0 192-43 0 0-320 43 0 0 64 384 0 0-64 43 0 0 192c0 23-9 45-25 61-16 16-38 25-61 25z m-256-128c17 0 34 6 46 18 12 12 18 29 18 46 0 17-6 33-18 45-12 12-29 19-46 19-17 0-33-7-45-19-12-12-19-28-19-45 0-17 7-34 19-46 12-12 28-18 45-18z"/>
<glyph glyph-name="chart" unicode="&#104;" d="M382 501c-9-4-13-14-9-23 1-2 6-10 11-17 6-8 10-15 10-15 0-1-13-9-28-19l-52-33-24-15-35 41c-20 23-36 42-37 43-6 5-17 8-25 5-3-1-39-20-82-41-85-44-82-43-86-53-4-10-2-19 6-27 4-4 6-6 10-7 5-2 12-2 16 0 2 0 33 16 70 35l67 34 31-36c41-48 41-48 45-51 6-5 15-6 23-3 2 1 33 20 68 42 35 23 64 41 65 41 0 0 6-8 13-17 13-19 15-21 19-23 9-3 20 1 23 10 2 3 16 93 16 98 0 7-4 14-11 16-4 1-94 17-98 17-1 0-4-1-6-2m-196-330l0-163 131 0 0 121c0 66-1 120-1 120 0 0-13-6-29-14l-29-15-4 6c-1 3-15 26-29 52-15 25-27 47-29 48-2 3-8 8-9 8-1 0-1-74-1-163m-97 119c-33-19-54-32-56-34-2-2-4-4-5-7l-2-4 0-107c0-122-1-113 6-121 3-3 6-5 9-7l4-2 48 0 49 0 0 156c0 86 0 156-1 156 0 0-23-14-52-30m366 28c-2-1-24-11-49-24l-46-23 0-263 54 0c52 0 53 1 57 2 5 2 10 7 13 13l2 4 0 134c0 133 0 135-1 139-3 9-10 15-19 17-5 1-6 1-11 1"/>
<glyph glyph-name="team-fill" unicode="&#105;" d="M256 299c23 0 44 9 60 25 16 16 25 37 25 60 0 23-9 44-25 60-16 16-37 25-60 25-23 0-44-9-60-25-16-16-25-37-25-60 0-23 9-44 25-60 16-16 37-25 60-25z m-139-64c14 0 28 5 38 15 10 10 16 24 16 38 0 14-6 28-16 38-10 10-24 15-38 15-14 0-27-5-37-15-10-10-16-24-16-38 0-14 6-28 16-38 10-10 23-15 37-15z m331 53c0-14-6-28-16-38-10-10-23-15-37-15-14 0-28 5-38 15-10 10-16 24-16 38 0 14 6 28 16 38 10 10 24 15 38 15 14 0 27-5 37-15 10-10 16-24 16-38z m-192-11c28 0 55-11 75-31 20-20 32-47 32-75l0-128-214 0 0 128c0 28 12 55 32 75 20 20 47 31 75 31z m-149-106c0 14 2 29 6 42l-4 0c-18-2-35-11-47-24-13-14-19-32-19-50l0-96 64 0z m362-128l0 96c0 19-7 37-20 51-13 14-31 22-50 23 4-13 6-28 6-42l0-128z"/>
<glyph glyph-name="search" unicode="&#106;" d="M185 142c-52 0-96 18-131 54-36 36-54 79-54 131 0 52 18 95 54 131 36 36 79 54 131 54 52 0 95-18 131-54 36-36 54-79 54-131 0-21-4-40-10-59-7-18-16-35-27-49l159-159c5-5 8-12 8-20 0-8-3-15-8-20-5-5-12-8-20-8-8 0-15 3-20 8l-159 159c-14-11-31-20-49-27-19-6-38-10-59-10z m0 57c35 0 66 13 91 37 24 25 37 56 37 91 0 36-13 66-37 91-25 25-56 37-91 37-36 0-66-12-91-37-25-25-37-55-37-91 0-35 12-66 37-91 25-25 55-37 91-37z"/>
<glyph glyph-name="calendar" unicode="&#107;" d="M111 49c-11 0-21 4-29 12-8 8-12 18-12 30l0 289c0 11 4 21 12 29 8 8 18 12 29 12l21 0 0 21c0 6 2 11 6 15 4 4 9 6 15 6 5 0 10-2 14-6 4-4 6-9 6-15l0-21 166 0 0 21c0 6 2 11 6 15 4 4 9 6 14 6 6 0 11-2 15-6 4-4 6-9 6-15l0-21 21 0c11 0 21-4 29-12 8-8 12-18 12-29l0-289c0-12-4-22-12-30-8-8-18-12-29-12z m0 42l290 0 0 206-290 0z m145 124c-6 0-11 2-15 6-4 4-6 8-6 14 0 6 2 11 6 15 4 4 9 6 15 6 6 0 11-2 15-6 4-4 6-9 6-15 0-6-2-10-6-14-4-4-9-6-15-6z m-83 0c-6 0-11 2-14 6-4 4-6 8-6 14 0 6 2 11 6 15 4 4 8 6 14 6 6 0 11-2 15-6 4-4 6-9 6-15 0-6-2-10-6-14-4-4-9-6-15-6z m166 0c-6 0-11 2-15 6-4 4-6 8-6 14 0 6 2 11 6 15 4 4 9 6 15 6 6 0 10-2 14-6 4-4 6-9 6-15 0-6-2-10-6-14-3-4-8-6-14-6z m-83-83c-6 0-11 2-15 6-4 4-6 9-6 15 0 5 2 10 6 14 4 4 9 6 15 6 6 0 11-2 15-6 4-4 6-9 6-14 0-6-2-11-6-15-4-4-9-6-15-6z m-83 0c-6 0-11 2-14 6-4 4-6 9-6 15 0 5 2 10 6 14 4 4 8 6 14 6 6 0 11-2 15-6 4-4 6-9 6-14 0-6-2-11-6-15-4-4-9-6-15-6z m166 0c-6 0-11 2-15 6-4 4-6 9-6 15 0 5 2 10 6 14 4 4 9 6 15 6 6 0 10-2 14-6 4-4 6-9 6-14 0-6-2-11-6-15-3-4-8-6-14-6z"/>
<glyph glyph-name="arrow-next" unicode="&#108;" d="M305 256l-157 157c-6 5-8 11-8 18 0 8 3 14 8 19 6 5 12 8 19 8 7 0 13-3 19-8l164-164c4-4 7-9 9-14 3-5 4-11 4-16 0-5-1-11-4-16-2-5-5-10-9-14l-164-165c-6-5-12-8-19-7-8 0-14 3-19 8-6 5-8 11-8 19 0 7 2 13 8 18z"/>
<glyph glyph-name="check" unicode="&#109;" d="M178 155l271 271c6 7 14 10 22 10 9 0 16-3 23-10 6-6 9-14 9-22 0-9-3-17-9-23l-294-295c-6-6-14-9-22-9-9 0-16 3-23 9l-137 138c-7 6-10 14-10 23 1 9 4 16 10 23 7 6 14 9 23 9 9 0 17-3 23-9z"/>
<glyph glyph-name="award-trophy" unicode="&#110;" d="M128 437c0 3 1 6 3 8 2 2 5 3 8 3l234 0c3 0 6-1 8-3 2-2 3-5 3-8l0-10 53 0c3 0 6-1 8-3 2-2 3-5 3-8l0-64c0-14-6-28-16-38-10-10-23-15-37-15l-18 0c-8-22-21-41-39-56-17-14-38-24-61-28l0-66 64 0c3 0 6-1 8-3 2-2 3-5 3-7l0-64c0-3-1-6-3-8-2-2-5-3-8-3l-170 0c-3 0-6 1-8 3-2 2-3 5-3 8l0 64c0 2 1 5 3 7 2 2 5 3 8 3l64 0 0 66c-23 4-44 14-61 28-18 15-31 34-39 56l-18 0c-14 0-27 5-37 15-10 10-16 24-16 38l0 64c0 3 1 6 3 8 2 2 5 3 8 3l53 0z m256-96l0 64 43 0 0-53c0-8-4-17-10-23-6-6-14-9-22-9l-11 0z m-256 64l-43 0 0-53c0-8 4-17 10-23 6-6 14-9 22-9l11 0z"/>
<glyph glyph-name="construction" unicode="&#111;" d="M403 64l-117 117 45 45 117-117z m-294 0l-45 45 147 147-36 36-15-15-27 28 0-44-15-15-65 64 15 15 44 0-27 27 76 76c7 7 15 12 23 15 8 3 17 5 25 5 9 0 17-2 25-5 8-3 16-8 23-15l-49-49 27-27-15-15 36-36 48 48c-1 4-3 8-3 12-1 4-2 9-2 13 0 21 7 39 22 53 14 14 32 22 53 22 5 0 10-1 15-2 5-1 10-3 15-5l-53-53 38-38 53 53c3-5 4-10 5-15 1-5 2-10 2-15 0-21-8-39-22-53-14-15-32-22-53-22-4 0-9 1-13 1-4 1-8 2-12 4z"/>
<glyph glyph-name="countertop" unicode="&#112;" d="M384 299l0 64c0 35-29 64-64 64-35 0-64-29-64-64l43 0c0 11 9 21 21 21 12 0 21-10 21-21l0-64-170 0c23 0 42 19 42 42l0 86-128 0 0-86c0-23 20-42 43-42l-85 0 0-43 42 0 0-171 342 0 0 171 42 0 0 43z m-107-171l-42 0 0 128 42 0z"/>
<glyph glyph-name="door-open-rounded" unicode="&#113;" d="M85 64c-6 0-11 2-15 6-4 4-6 9-6 15 0 6 2 11 6 16 4 4 9 6 15 6l22 0 0 298c0 12 4 22 12 30 9 9 19 13 30 13l214 0c11 0 21-4 30-13 8-8 12-18 12-30l0-298 22 0c6 0 11-2 15-6 4-5 6-10 6-16 0-6-2-11-6-15-4-4-9-6-15-6z m278 43l0 298-96 0 0 24c15-3 28-10 38-22 10-12 15-25 15-41l0-237c0-10-3-19-10-27-7-8-15-13-26-15l0 20z m-128 128c6 0 11 2 15 6 4 4 6 9 6 15 0 6-2 11-6 15-4 4-9 6-15 6-6 0-11-2-16-6-4-4-6-9-6-15 0-6 2-11 6-15 5-4 10-6 16-6z"/>
<glyph glyph-name="family-room" unicode="&#114;" d="M267 363c0 23 19 42 42 42l75 0c23 0 43-19 43-42l0-46c-25-9-43-33-43-60l0-44-117 0z m-139-106l0-44 117 0 0 150c0 23-19 42-42 42l-75 0c-23 0-43-19-43-42l0-46c25-9 43-33 43-60z m313 41c-21-3-36-23-36-45l0-61-298 0 0 64c0 11-5 22-13 30-8 8-19 13-30 13-11 0-22-5-30-13-8-8-13-19-13-30l0-107c0-23 20-42 43-42l0-43 43 0 0 43 298 0 0-43 43 0 0 43c23 0 43 19 43 42l0 107c0 26-24 47-50 42z"/>
<glyph glyph-name="food-24" unicode="&#115;" d="M80 452c0 5 2 9 6 12 4 4 8 5 13 5 5 0 10-2 13-6 3-3 5-8 5-12l0-96c0-4 2-7 4-10 3-2 6-4 10-4 3 0 7 2 9 4 3 3 4 6 4 10l0 98c0 5 2 9 5 12 3 3 7 4 11 4 4 0 8-1 11-4 3-3 5-7 5-12l0-98c0-4 1-7 4-10 2-2 6-4 9-4 4 0 7 2 10 4 2 3 4 6 4 10l0 96c0 4 2 9 5 12 3 4 8 6 13 6 5 0 9-1 13-5 4-3 6-7 6-12 1-13 5-76 5-111 0-28-14-54-36-69-4-4-5-7-5-9 2-40 9-150 9-167 0-14-5-28-15-38-10-10-24-15-38-15-14 0-28 5-38 15-10 10-15 24-15 38 0 17 7 127 9 167 0 2-1 5-5 9-11 8-20 18-27 30-6 12-9 26-9 39 0 35 4 98 5 111z m197-105c0 32 13 63 36 86 23 23 54 36 87 36 4 0 8-1 11-4 3-3 5-7 5-12l0-181c0-7 2-40 5-78l0-1c3-41 6-85 6-97 0-14-6-28-16-38-10-10-24-15-38-15-14 0-27 5-37 15-10 10-16 24-16 38 0 11 3 56 5 97 2 21 3 41 4 55l1 8-15 0c-5 0-10 1-15 3-4 2-8 4-12 8-3 3-6 8-8 12-2 5-3 9-3 14z"/>
<glyph glyph-name="hair-dryer" unicode="&#116;" d="M469 320c-16 0-33 4-47 12-12 6-25 10-38 9l0 22c17 0 33-4 47-12 12-7 25-10 38-10m0 43c-13 0-26 3-38 10-14 8-30 12-47 11l0-21c13 0 26-3 38-10 14-8 31-12 47-11m0-64c-13-1-26 3-38 9-14 8-30 12-47 12l0-21c13 0 26-3 38-10 14-8 31-12 47-12m-256-37c51 10 101 22 150 37l0 150c0 0-139 42-203 42-28 0-56-10-77-29-22-19-35-45-39-73-4-28 3-57 19-81 16-23 40-40 68-47l18-132 22 0c1-11 4-20 9-29 6-9 13-16 22-21 10-6 18-14 24-24 5-10 9-21 9-33l21 0c0 15-4 29-11 42-7 13-17 24-30 32-15 11-23 19-23 33l21 0m-53 192c-11 0-21 3-30 9-8 6-15 14-19 24-4 9-5 20-3 30 2 11 7 20 14 28 8 7 17 12 28 14 10 2 21 1 30-3 10-4 18-11 24-19 6-9 9-19 9-30 0-14-5-28-15-38-10-10-24-15-38-15z"/>
<glyph glyph-name="luggage" unicode="&#117;" d="M149 64c-11 0-21 4-30 13-8 8-12 18-12 30l0 234c0 12 4 22 12 30 9 9 19 13 30 13l43 0 0 43c0 11 4 21 13 30 8 8 18 12 30 12l42 0c12 0 22-4 30-12 9-9 13-19 13-30l0-43 43 0c11 0 21-4 30-13 8-8 12-18 12-30l0-234c0-12-4-22-12-30-9-9-19-13-30-13 0-6-2-11-6-15-5-4-10-6-16-6-6 0-11 2-15 6-4 4-6 9-6 15l-128 0c0-6-2-11-6-15-4-4-9-6-15-6-6 0-11 2-16 6-4 4-6 9-6 15z m43 64l43 0 0 192-43 0z m85 0l43 0 0 192-43 0z m-42 256l42 0 0 43-42 0z"/>
<glyph glyph-name="parking" unicode="&#118;" d="M282 277l-69 0 0 86 69 0c11 0 22-5 30-13 8-8 12-19 12-30 0-11-4-22-12-30-8-8-19-13-30-13z m-5 171l-149 0 0-384 85 0 0 128 64 0c34 0 67 13 91 37 24 24 37 57 37 91 0 71-57 128-128 128z"/>
<glyph glyph-name="refrigerator" unicode="&#119;" d="M149 469l214 0c11 0 22-4 30-12 8-8 12-19 12-30l0-107-298 0 0 107c0 11 4 22 12 30 8 8 19 12 30 12z m256-362c0-12-4-23-12-31-8-8-19-12-30-12l0-21-43 0 0 21-128 0 0-21-43 0 0 21c-11 0-22 4-30 12-8 8-12 19-12 31l0 192 298 0z m-234 298l0-42 42 0 0 42z m0-149l0-64 42 0 0 64z"/>
<glyph glyph-name="round-room-service" unicode="&#120;" d="M64 149l384 0c12 0 21-9 21-21 0-12-9-21-21-21l-384 0c-12 0-21 9-21 21 0 12 9 21 21 21z m231 197c3 6 4 13 3 20 0 7-3 14-6 20-4 6-10 11-16 14-6 4-13 5-20 5-7 0-14-1-20-5-6-3-12-8-16-14-3-6-6-13-6-20-1-7 0-14 3-20-84-17-147-89-153-175l384 0c-6 86-69 158-153 175z"/>
</font>
</defs>
</svg>
